<?xml version="1.0" standalone="no"?>
<svg xmlns:xlink="http://www.w3.org/1999/xlink" id="wave" style="transform:rotate(180deg); transition: 0.3s" viewBox="0 0 1440 490" version="1.1" xmlns="http://www.w3.org/2000/svg"><defs><linearGradient id="sw-gradient-0" x1="0" x2="0" y1="1" y2="0"><stop stop-color="rgba(255, 134, 0, 1)" offset="0%"/><stop stop-color="rgba(228, 153, 70, 1)" offset="100%"/></linearGradient></defs><path style="transform:translate(0, 0px); opacity:1" fill="url(#sw-gradient-0)" d="M0,0L40,24.5C80,49,160,98,240,155.2C320,212,400,278,480,253.2C560,229,640,114,720,89.8C800,65,880,131,960,171.5C1040,212,1120,229,1200,269.5C1280,310,1360,376,1440,400.2C1520,425,1600,408,1680,400.2C1760,392,1840,392,1920,343C2000,294,2080,196,2160,171.5C2240,147,2320,196,2400,236.8C2480,278,2560,310,2640,326.7C2720,343,2800,343,2880,310.3C2960,278,3040,212,3120,228.7C3200,245,3280,343,3360,326.7C3440,310,3520,180,3600,130.7C3680,82,3760,114,3840,155.2C3920,196,4000,245,4080,294C4160,343,4240,392,4320,416.5C4400,441,4480,441,4560,392C4640,343,4720,245,4800,179.7C4880,114,4960,82,5040,98C5120,114,5200,180,5280,196C5360,212,5440,180,5520,163.3C5600,147,5680,147,5720,147L5760,147L5760,490L5720,490C5680,490,5600,490,5520,490C5440,490,5360,490,5280,490C5200,490,5120,490,5040,490C4960,490,4880,490,4800,490C4720,490,4640,490,4560,490C4480,490,4400,490,4320,490C4240,490,4160,490,4080,490C4000,490,3920,490,3840,490C3760,490,3680,490,3600,490C3520,490,3440,490,3360,490C3280,490,3200,490,3120,490C3040,490,2960,490,2880,490C2800,490,2720,490,2640,490C2560,490,2480,490,2400,490C2320,490,2240,490,2160,490C2080,490,2000,490,1920,490C1840,490,1760,490,1680,490C1600,490,1520,490,1440,490C1360,490,1280,490,1200,490C1120,490,1040,490,960,490C880,490,800,490,720,490C640,490,560,490,480,490C400,490,320,490,240,490C160,490,80,490,40,490L0,490Z"/><defs><linearGradient id="sw-gradient-1" x1="0" x2="0" y1="1" y2="0"><stop stop-color="rgba(255, 134, 0, 1)" offset="0%"/><stop stop-color="rgba(228, 153, 70, 1)" offset="100%"/></linearGradient></defs><path style="transform:translate(0, 50px); opacity:0.9" fill="url(#sw-gradient-1)" d="M0,245L40,212.3C80,180,160,114,240,106.2C320,98,400,147,480,138.8C560,131,640,65,720,98C800,131,880,261,960,285.8C1040,310,1120,229,1200,236.8C1280,245,1360,343,1440,318.5C1520,294,1600,147,1680,81.7C1760,16,1840,33,1920,73.5C2000,114,2080,180,2160,236.8C2240,294,2320,343,2400,375.7C2480,408,2560,425,2640,367.5C2720,310,2800,180,2880,163.3C2960,147,3040,245,3120,269.5C3200,294,3280,245,3360,204.2C3440,163,3520,131,3600,171.5C3680,212,3760,327,3840,334.8C3920,343,4000,245,4080,196C4160,147,4240,147,4320,130.7C4400,114,4480,82,4560,89.8C4640,98,4720,147,4800,179.7C4880,212,4960,229,5040,253.2C5120,278,5200,310,5280,343C5360,376,5440,408,5520,416.5C5600,425,5680,408,5720,400.2L5760,392L5760,490L5720,490C5680,490,5600,490,5520,490C5440,490,5360,490,5280,490C5200,490,5120,490,5040,490C4960,490,4880,490,4800,490C4720,490,4640,490,4560,490C4480,490,4400,490,4320,490C4240,490,4160,490,4080,490C4000,490,3920,490,3840,490C3760,490,3680,490,3600,490C3520,490,3440,490,3360,490C3280,490,3200,490,3120,490C3040,490,2960,490,2880,490C2800,490,2720,490,2640,490C2560,490,2480,490,2400,490C2320,490,2240,490,2160,490C2080,490,2000,490,1920,490C1840,490,1760,490,1680,490C1600,490,1520,490,1440,490C1360,490,1280,490,1200,490C1120,490,1040,490,960,490C880,490,800,490,720,490C640,490,560,490,480,490C400,490,320,490,240,490C160,490,80,490,40,490L0,490Z"/><defs><linearGradient id="sw-gradient-2" x1="0" x2="0" y1="1" y2="0"><stop stop-color="rgba(255, 134, 0, 1)" offset="0%"/><stop stop-color="rgba(228, 153, 70, 1)" offset="100%"/></linearGradient></defs><path style="transform:translate(0, 100px); opacity:0.8" fill="url(#sw-gradient-2)" d="M0,0L40,0C80,0,160,0,240,24.5C320,49,400,98,480,130.7C560,163,640,180,720,204.2C800,229,880,261,960,228.7C1040,196,1120,98,1200,81.7C1280,65,1360,131,1440,130.7C1520,131,1600,65,1680,73.5C1760,82,1840,163,1920,236.8C2000,310,2080,376,2160,383.8C2240,392,2320,343,2400,277.7C2480,212,2560,131,2640,81.7C2720,33,2800,16,2880,73.5C2960,131,3040,261,3120,302.2C3200,343,3280,294,3360,277.7C3440,261,3520,278,3600,236.8C3680,196,3760,98,3840,65.3C3920,33,4000,65,4080,114.3C4160,163,4240,229,4320,261.3C4400,294,4480,294,4560,269.5C4640,245,4720,196,4800,155.2C4880,114,4960,82,5040,130.7C5120,180,5200,310,5280,302.2C5360,294,5440,147,5520,122.5C5600,98,5680,196,5720,245L5760,294L5760,490L5720,490C5680,490,5600,490,5520,490C5440,490,5360,490,5280,490C5200,490,5120,490,5040,490C4960,490,4880,490,4800,490C4720,490,4640,490,4560,490C4480,490,4400,490,4320,490C4240,490,4160,490,4080,490C4000,490,3920,490,3840,490C3760,490,3680,490,3600,490C3520,490,3440,490,3360,490C3280,490,3200,490,3120,490C3040,490,2960,490,2880,490C2800,490,2720,490,2640,490C2560,490,2480,490,2400,490C2320,490,2240,490,2160,490C2080,490,2000,490,1920,490C1840,490,1760,490,1680,490C1600,490,1520,490,1440,490C1360,490,1280,490,1200,490C1120,490,1040,490,960,490C880,490,800,490,720,490C640,490,560,490,480,490C400,490,320,490,240,490C160,490,80,490,40,490L0,490Z"/><defs><linearGradient id="sw-gradient-3" x1="0" x2="0" y1="1" y2="0"><stop stop-color="rgba(255, 134, 0, 1)" offset="0%"/><stop stop-color="rgba(228, 153, 70, 1)" offset="100%"/></linearGradient></defs><path style="transform:translate(0, 150px); opacity:0.7" fill="url(#sw-gradient-3)" d="M0,196L40,163.3C80,131,160,65,240,89.8C320,114,400,229,480,228.7C560,229,640,114,720,73.5C800,33,880,65,960,73.5C1040,82,1120,65,1200,98C1280,131,1360,212,1440,220.5C1520,229,1600,163,1680,171.5C1760,180,1840,261,1920,302.2C2000,343,2080,343,2160,310.3C2240,278,2320,212,2400,204.2C2480,196,2560,245,2640,285.8C2720,327,2800,359,2880,334.8C2960,310,3040,229,3120,204.2C3200,180,3280,212,3360,204.2C3440,196,3520,147,3600,130.7C3680,114,3760,131,3840,130.7C3920,131,4000,114,4080,138.8C4160,163,4240,229,4320,253.2C4400,278,4480,261,4560,228.7C4640,196,4720,147,4800,138.8C4880,131,4960,163,5040,196C5120,229,5200,261,5280,236.8C5360,212,5440,131,5520,122.5C5600,114,5680,180,5720,212.3L5760,245L5760,490L5720,490C5680,490,5600,490,5520,490C5440,490,5360,490,5280,490C5200,490,5120,490,5040,490C4960,490,4880,490,4800,490C4720,490,4640,490,4560,490C4480,490,4400,490,4320,490C4240,490,4160,490,4080,490C4000,490,3920,490,3840,490C3760,490,3680,490,3600,490C3520,490,3440,490,3360,490C3280,490,3200,490,3120,490C3040,490,2960,490,2880,490C2800,490,2720,490,2640,490C2560,490,2480,490,2400,490C2320,490,2240,490,2160,490C2080,490,2000,490,1920,490C1840,490,1760,490,1680,490C1600,490,1520,490,1440,490C1360,490,1280,490,1200,490C1120,490,1040,490,960,490C880,490,800,490,720,490C640,490,560,490,480,490C400,490,320,490,240,490C160,490,80,490,40,490L0,490Z"/></svg>